<svg width="444" height="411" viewBox="0 0 444 411" fill="none" xmlns="http://www.w3.org/2000/svg">
<mask id="path-1-outside-1_1_2" maskUnits="userSpaceOnUse" x="17" y="15" width="410" height="381" fill="black">
<rect fill="white" x="17" y="15" width="410" height="381"/>
<path d="M401.722 367.462H271.981C271.129 367.462 270.312 367.122 269.709 366.518C269.107 365.914 268.768 365.095 268.768 364.24V292.466C268.768 291.612 269.107 290.793 269.709 290.188C270.312 289.584 271.129 289.245 271.981 289.245H401.722C402.574 289.245 403.391 289.584 403.994 290.188C404.596 290.793 404.935 291.612 404.935 292.466V364.24C404.935 365.095 404.596 365.914 403.994 366.518C403.391 367.122 402.574 367.462 401.722 367.462ZM275.194 361.019H398.509V295.688H275.194V361.019Z"/>
<path d="M417.787 351.354C416.935 351.354 416.118 351.015 415.515 350.411C414.912 349.807 414.574 348.987 414.574 348.133V279.58H288.046C287.194 279.58 286.377 279.241 285.774 278.637C285.172 278.033 284.833 277.213 284.833 276.359C284.833 275.505 285.172 274.685 285.774 274.081C286.377 273.477 287.194 273.138 288.046 273.138H417.787C418.639 273.138 419.456 273.477 420.059 274.081C420.661 274.685 421 275.505 421 276.359V348.133C421 348.987 420.661 349.807 420.059 350.411C419.456 351.015 418.639 351.354 417.787 351.354Z"/>
<path fill-rule="evenodd" clip-rule="evenodd" d="M367.851 22.1471C373.396 20.3523 380.136 20.2102 385.975 25.0705C388.944 27.5421 390.532 30.5739 390.932 33.8459C391.319 37.0114 390.564 40.1206 389.389 42.8607C387.09 48.2238 382.805 53.0604 379.574 55.9385L246.929 196.368C254.231 208.573 255.381 227.692 245.861 263.556C243.452 272.635 237.8 283.822 230.42 295.639C223.003 307.517 213.694 320.258 203.773 332.488C184.011 356.85 161.477 379.601 146.283 389.438C145.523 389.93 144.603 390.108 143.715 389.936C141.889 389.581 139.756 388.727 137.555 387.665C135.3 386.579 132.756 385.167 130.051 383.552C124.638 380.32 118.416 376.173 112.299 371.927C106.174 367.675 100.111 363.294 95.0142 359.585C93.8017 358.702 92.6476 357.861 91.562 357.069C88.0545 354.511 85.2624 352.475 83.5317 351.274C82.6478 350.661 82.0934 349.675 82.0275 348.599C81.9616 347.524 82.3916 346.477 83.194 345.76C84.6217 344.485 86.3478 342.971 88.3093 341.251C95.9136 334.582 107.057 324.81 118.082 313.763C128.2 303.624 137.965 292.653 144.723 282.273C135.161 288.276 122.987 295.792 110.285 302.724C91.8927 312.76 71.735 321.953 56.4056 323.307C55.3923 323.396 54.3903 323.04 53.6596 322.331C46.1825 315.07 37.4438 300.218 31.2243 278.375C24.9773 256.436 21.1995 227.204 23.8672 190.936C23.9521 189.783 24.5977 188.745 25.5938 188.161C26.5898 187.577 27.8086 187.522 28.8529 188.014C37.5629 192.116 53.0773 197.128 70.9159 198.588C88.7458 200.047 108.618 197.936 126.308 188.12C149.247 175.392 164.929 166.721 178.203 162.979C191.176 159.321 201.891 160.34 214.746 166.158L354.899 30.0566C357.651 27.3844 362.389 23.9153 367.851 22.1471ZM370.005 28.8358C365.816 30.1918 361.974 32.9713 359.776 35.1055L217.888 172.892C216.83 173.918 215.246 174.173 213.922 173.53C201.389 167.445 191.957 166.402 180.1 169.745C167.801 173.212 152.961 181.364 129.703 194.27C110.435 204.961 89.0607 207.124 70.3457 205.593C54.425 204.29 40.2268 200.299 30.5324 196.399C28.5998 229.609 32.2432 256.35 37.9652 276.446C43.6419 296.383 51.3015 309.572 57.4121 316.132C70.9739 314.434 89.205 306.225 106.934 296.55C121.571 288.563 135.451 279.816 145.532 273.464C148.058 271.873 150.346 270.431 152.346 269.19C153.644 268.385 155.312 268.514 156.471 269.509C157.63 270.504 158.013 272.137 157.42 273.546C151.19 288.333 137.013 304.73 123.037 318.734C111.824 329.97 100.434 339.957 92.8398 346.616C92.2566 347.128 91.6958 347.619 91.1592 348.091C92.5103 349.069 94.058 350.198 95.7521 351.433C96.8244 352.215 97.9553 353.04 99.1322 353.897C104.218 357.599 110.23 361.942 116.289 366.148C122.356 370.359 128.427 374.402 133.638 377.513C136.244 379.069 138.593 380.367 140.592 381.331C141.873 381.949 142.932 382.389 143.771 382.677C158.018 373.006 179.265 351.561 198.334 328.053C208.121 315.989 217.249 303.486 224.479 291.909C231.745 280.273 236.95 269.799 239.087 261.749C249.202 223.642 246.328 207.319 239.633 198.031C238.646 196.662 238.77 194.783 239.929 193.556L374.591 50.9926C374.664 50.9156 374.74 50.8418 374.819 50.7716C377.624 48.2953 381.179 44.2141 382.949 40.0854C383.823 38.0457 384.161 36.2283 383.974 34.7008C383.8 33.2799 383.148 31.8522 381.498 30.4787C378.097 27.6485 374.112 27.5064 370.005 28.8358Z"/>
</mask>
<path d="M401.722 367.462H271.981C271.129 367.462 270.312 367.122 269.709 366.518C269.107 365.914 268.768 365.095 268.768 364.24V292.466C268.768 291.612 269.107 290.793 269.709 290.188C270.312 289.584 271.129 289.245 271.981 289.245H401.722C402.574 289.245 403.391 289.584 403.994 290.188C404.596 290.793 404.935 291.612 404.935 292.466V364.24C404.935 365.095 404.596 365.914 403.994 366.518C403.391 367.122 402.574 367.462 401.722 367.462ZM275.194 361.019H398.509V295.688H275.194V361.019Z" fill="#222222"/>
<path d="M417.787 351.354C416.935 351.354 416.118 351.015 415.515 350.411C414.912 349.807 414.574 348.987 414.574 348.133V279.58H288.046C287.194 279.58 286.377 279.241 285.774 278.637C285.172 278.033 284.833 277.213 284.833 276.359C284.833 275.505 285.172 274.685 285.774 274.081C286.377 273.477 287.194 273.138 288.046 273.138H417.787C418.639 273.138 419.456 273.477 420.059 274.081C420.661 274.685 421 275.505 421 276.359V348.133C421 348.987 420.661 349.807 420.059 350.411C419.456 351.015 418.639 351.354 417.787 351.354Z" fill="#222222"/>
<path fill-rule="evenodd" clip-rule="evenodd" d="M367.851 22.1471C373.396 20.3523 380.136 20.2102 385.975 25.0705C388.944 27.5421 390.532 30.5739 390.932 33.8459C391.319 37.0114 390.564 40.1206 389.389 42.8607C387.09 48.2238 382.805 53.0604 379.574 55.9385L246.929 196.368C254.231 208.573 255.381 227.692 245.861 263.556C243.452 272.635 237.8 283.822 230.42 295.639C223.003 307.517 213.694 320.258 203.773 332.488C184.011 356.85 161.477 379.601 146.283 389.438C145.523 389.93 144.603 390.108 143.715 389.936C141.889 389.581 139.756 388.727 137.555 387.665C135.3 386.579 132.756 385.167 130.051 383.552C124.638 380.32 118.416 376.173 112.299 371.927C106.174 367.675 100.111 363.294 95.0142 359.585C93.8017 358.702 92.6476 357.861 91.562 357.069C88.0545 354.511 85.2624 352.475 83.5317 351.274C82.6478 350.661 82.0934 349.675 82.0275 348.599C81.9616 347.524 82.3916 346.477 83.194 345.76C84.6217 344.485 86.3478 342.971 88.3093 341.251C95.9136 334.582 107.057 324.81 118.082 313.763C128.2 303.624 137.965 292.653 144.723 282.273C135.161 288.276 122.987 295.792 110.285 302.724C91.8927 312.76 71.735 321.953 56.4056 323.307C55.3923 323.396 54.3903 323.04 53.6596 322.331C46.1825 315.07 37.4438 300.218 31.2243 278.375C24.9773 256.436 21.1995 227.204 23.8672 190.936C23.9521 189.783 24.5977 188.745 25.5938 188.161C26.5898 187.577 27.8086 187.522 28.8529 188.014C37.5629 192.116 53.0773 197.128 70.9159 198.588C88.7458 200.047 108.618 197.936 126.308 188.12C149.247 175.392 164.929 166.721 178.203 162.979C191.176 159.321 201.891 160.34 214.746 166.158L354.899 30.0566C357.651 27.3844 362.389 23.9153 367.851 22.1471ZM370.005 28.8358C365.816 30.1918 361.974 32.9713 359.776 35.1055L217.888 172.892C216.83 173.918 215.246 174.173 213.922 173.53C201.389 167.445 191.957 166.402 180.1 169.745C167.801 173.212 152.961 181.364 129.703 194.27C110.435 204.961 89.0607 207.124 70.3457 205.593C54.425 204.29 40.2268 200.299 30.5324 196.399C28.5998 229.609 32.2432 256.35 37.9652 276.446C43.6419 296.383 51.3015 309.572 57.4121 316.132C70.9739 314.434 89.205 306.225 106.934 296.55C121.571 288.563 135.451 279.816 145.532 273.464C148.058 271.873 150.346 270.431 152.346 269.19C153.644 268.385 155.312 268.514 156.471 269.509C157.63 270.504 158.013 272.137 157.42 273.546C151.19 288.333 137.013 304.73 123.037 318.734C111.824 329.97 100.434 339.957 92.8398 346.616C92.2566 347.128 91.6958 347.619 91.1592 348.091C92.5103 349.069 94.058 350.198 95.7521 351.433C96.8244 352.215 97.9553 353.04 99.1322 353.897C104.218 357.599 110.23 361.942 116.289 366.148C122.356 370.359 128.427 374.402 133.638 377.513C136.244 379.069 138.593 380.367 140.592 381.331C141.873 381.949 142.932 382.389 143.771 382.677C158.018 373.006 179.265 351.561 198.334 328.053C208.121 315.989 217.249 303.486 224.479 291.909C231.745 280.273 236.95 269.799 239.087 261.749C249.202 223.642 246.328 207.319 239.633 198.031C238.646 196.662 238.77 194.783 239.929 193.556L374.591 50.9926C374.664 50.9156 374.74 50.8418 374.819 50.7716C377.624 48.2953 381.179 44.2141 382.949 40.0854C383.823 38.0457 384.161 36.2283 383.974 34.7008C383.8 33.2799 383.148 31.8522 381.498 30.4787C378.097 27.6485 374.112 27.5064 370.005 28.8358Z" fill="#222222"/>
<path d="M128.934 186.67C128.134 185.22 126.309 184.693 124.858 185.494C123.408 186.294 122.881 188.119 123.682 189.57L128.934 186.67ZM125.283 192.47C126.083 193.921 127.908 194.448 129.359 193.647C130.809 192.846 131.336 191.021 130.536 189.571L125.283 192.47ZM357.057 27.9723C355.906 26.7806 354.006 26.7478 352.815 27.8989C351.623 29.0501 351.59 30.9493 352.741 32.141L357.057 27.9723ZM355.18 34.6653C356.331 35.857 358.23 35.8898 359.422 34.7387C360.614 33.5875 360.646 31.6883 359.495 30.4967L355.18 34.6653ZM239.86 258.85C238.259 258.423 236.615 259.375 236.188 260.975C235.761 262.576 236.712 264.22 238.313 264.647L239.86 258.85ZM241.633 265.533C243.234 265.96 244.878 265.009 245.305 263.408C245.732 261.807 244.78 260.163 243.18 259.736L241.633 265.533ZM130.536 189.571L128.934 186.67L123.682 189.57L125.283 192.47L130.536 189.571ZM359.495 30.4967L357.057 27.9723L352.741 32.141L355.18 34.6653L359.495 30.4967ZM243.18 259.736L239.86 258.85L238.313 264.647L241.633 265.533L243.18 259.736ZM275.194 361.019H269.194V367.019H275.194V361.019ZM398.509 361.019V367.019H404.509V361.019H398.509ZM398.509 295.688H404.509V289.688H398.509V295.688ZM275.194 295.688V289.688H269.194V295.688H275.194ZM414.574 279.58H420.574V273.58H414.574V279.58ZM385.975 25.0705L389.814 20.4592L389.814 20.4589L385.975 25.0705ZM367.851 22.1471L366.004 16.4387L366.004 16.4387L367.851 22.1471ZM390.932 33.8459L396.888 33.118L396.888 33.1179L390.932 33.8459ZM389.389 42.8607L383.874 40.4968L383.874 40.4969L389.389 42.8607ZM379.574 55.9385L375.583 51.4584C375.454 51.5731 375.331 51.6932 375.212 51.8185L379.574 55.9385ZM246.929 196.368L242.567 192.247C240.722 194.201 240.4 197.142 241.78 199.448L246.929 196.368ZM245.861 263.556L240.062 262.017L240.062 262.017L245.861 263.556ZM230.42 295.639L225.331 292.461L225.331 292.461L230.42 295.639ZM203.773 332.488L208.432 336.268L208.432 336.268L203.773 332.488ZM146.283 389.438L143.022 384.401L143.022 384.401L146.283 389.438ZM143.715 389.936L142.571 395.826L142.572 395.826L143.715 389.936ZM137.555 387.665L134.95 393.07L134.95 393.07L137.555 387.665ZM130.051 383.552L133.127 378.4L133.127 378.4L130.051 383.552ZM112.299 371.927L115.72 366.998L115.72 366.998L112.299 371.927ZM95.0142 359.585L91.4834 364.436L91.4834 364.436L95.0142 359.585ZM91.562 357.069L95.0975 352.221L95.0975 352.221L91.562 357.069ZM83.5317 351.274L80.1119 356.204L80.1119 356.204L83.5317 351.274ZM82.0275 348.599L88.0163 348.233L88.0163 348.233L82.0275 348.599ZM83.194 345.76L79.1962 341.286L79.1962 341.286L83.194 345.76ZM88.3093 341.251L92.2653 345.762L92.2653 345.762L88.3093 341.251ZM118.082 313.763L113.835 309.524L113.835 309.524L118.082 313.763ZM144.723 282.273L149.751 285.546C151.288 283.186 150.976 280.073 149 278.065C147.025 276.057 143.918 275.693 141.532 277.191L144.723 282.273ZM110.285 302.724L107.411 297.457L107.411 297.457L110.285 302.724ZM56.4056 323.307L56.9333 329.284L56.9333 329.284L56.4056 323.307ZM53.6596 322.331L57.8395 318.026L57.8395 318.026L53.6596 322.331ZM31.2243 278.375L25.4537 280.018L25.4537 280.018L31.2243 278.375ZM23.8672 190.936L17.8834 190.496L17.8834 190.496L23.8672 190.936ZM25.5938 188.161L22.5597 182.985L22.5596 182.985L25.5938 188.161ZM28.8529 188.014L31.4092 182.586L31.4092 182.586L28.8529 188.014ZM70.9159 198.588L70.4266 204.568L70.4266 204.568L70.9159 198.588ZM126.308 188.12L123.397 182.874L123.397 182.874L126.308 188.12ZM178.203 162.979L176.575 157.204L176.575 157.204L178.203 162.979ZM214.746 166.158L212.272 171.624C214.518 172.64 217.158 172.179 218.926 170.462L214.746 166.158ZM354.899 30.0566L350.719 25.752L350.719 25.7522L354.899 30.0566ZM359.776 35.1055L355.596 30.8009L355.596 30.8011L359.776 35.1055ZM370.005 28.8358L368.157 23.1274L368.157 23.1274L370.005 28.8358ZM217.888 172.892L222.068 177.196L222.068 177.196L217.888 172.892ZM213.922 173.53L216.542 168.133L216.542 168.133L213.922 173.53ZM180.1 169.745L181.728 175.52L181.728 175.52L180.1 169.745ZM129.703 194.27L126.791 189.023L126.791 189.023L129.703 194.27ZM70.3457 205.593L69.8564 211.573L69.8564 211.573L70.3457 205.593ZM30.5324 196.399L32.7717 190.833C30.9799 190.112 28.9506 190.298 27.3194 191.332C25.6883 192.367 24.6548 194.123 24.5425 196.051L30.5324 196.399ZM37.9652 276.446L32.1945 278.089L32.1945 278.089L37.9652 276.446ZM57.4121 316.132L53.022 320.222C54.3353 321.631 56.2458 322.325 58.1576 322.085L57.4121 316.132ZM106.934 296.55L104.059 291.283L104.059 291.283L106.934 296.55ZM145.532 273.464L148.731 278.541L148.731 278.541L145.532 273.464ZM152.346 269.19L149.183 264.091L149.183 264.091L152.346 269.19ZM157.42 273.546L151.89 271.216L151.89 271.216L157.42 273.546ZM123.037 318.734L118.79 314.496L118.79 314.496L123.037 318.734ZM92.8398 346.616L88.884 342.105L88.884 342.105L92.8398 346.616ZM91.1592 348.091L87.2005 343.582C85.829 344.786 85.0802 346.549 85.1658 348.372C85.2514 350.195 86.1621 351.88 87.6403 352.95L91.1592 348.091ZM95.7521 351.433L92.2165 356.281L92.2166 356.281L95.7521 351.433ZM99.1322 353.897L102.663 349.046L102.663 349.046L99.1322 353.897ZM116.289 366.148L112.868 371.077L112.868 371.077L116.289 366.148ZM133.638 377.513L130.562 382.665L130.562 382.665L133.638 377.513ZM140.592 381.331L137.987 386.736L137.987 386.736L140.592 381.331ZM143.771 382.677L141.824 388.353C143.609 388.965 145.579 388.702 147.141 387.641L143.771 382.677ZM198.334 328.053L193.675 324.273L193.675 324.273L198.334 328.053ZM224.479 291.909L229.568 295.087L229.568 295.087L224.479 291.909ZM239.087 261.749L233.287 260.209L233.287 260.21L239.087 261.749ZM239.633 198.031L234.766 201.54L234.766 201.54L239.633 198.031ZM239.929 193.556L244.291 197.676L244.291 197.676L239.929 193.556ZM374.591 50.9926L370.23 46.8718L370.229 46.8726L374.591 50.9926ZM374.819 50.7716L370.848 46.2737L370.848 46.2738L374.819 50.7716ZM382.949 40.0854L388.463 42.4493L388.463 42.4493L382.949 40.0854ZM383.974 34.7008L389.93 33.9729L389.93 33.9728L383.974 34.7008ZM381.498 30.4787L385.337 25.8674L385.336 25.867L381.498 30.4787ZM401.722 361.462H271.981V373.462H401.722V361.462ZM271.981 361.462C272.725 361.462 273.436 361.758 273.957 362.281L265.461 370.755C267.188 372.486 269.533 373.462 271.981 373.462V361.462ZM273.957 362.281C274.478 362.803 274.768 363.508 274.768 364.24H262.768C262.768 366.681 263.735 369.025 265.461 370.755L273.957 362.281ZM274.768 364.24V292.466H262.768V364.24H274.768ZM274.768 292.466C274.768 293.198 274.478 293.903 273.957 294.425L265.461 285.951C263.735 287.682 262.768 290.026 262.768 292.466H274.768ZM273.957 294.425C273.436 294.948 272.726 295.245 271.981 295.245V283.245C269.532 283.245 267.187 284.22 265.461 285.951L273.957 294.425ZM271.981 295.245H401.722V283.245H271.981V295.245ZM401.722 295.245C400.978 295.245 400.267 294.948 399.746 294.425L408.242 285.951C406.516 284.22 404.171 283.245 401.722 283.245V295.245ZM399.746 294.425C399.225 293.903 398.935 293.198 398.935 292.466H410.935C410.935 290.026 409.968 287.682 408.242 285.951L399.746 294.425ZM398.935 292.466V364.24H410.935V292.466H398.935ZM398.935 364.24C398.935 363.508 399.225 362.803 399.746 362.281L408.242 370.755C409.968 369.025 410.935 366.681 410.935 364.24H398.935ZM399.746 362.281C400.267 361.758 400.978 361.462 401.722 361.462V373.462C404.17 373.462 406.515 372.486 408.242 370.755L399.746 362.281ZM275.194 367.019H398.509V355.019H275.194V367.019ZM404.509 361.019V295.688H392.509V361.019H404.509ZM398.509 289.688H275.194V301.688H398.509V289.688ZM269.194 295.688V361.019H281.194V295.688H269.194ZM417.787 345.354C418.531 345.354 419.242 345.651 419.763 346.174L411.267 354.648C412.993 356.379 415.338 357.354 417.787 357.354V345.354ZM419.763 346.174C420.284 346.696 420.574 347.401 420.574 348.133H408.574C408.574 350.573 409.541 352.917 411.267 354.648L419.763 346.174ZM420.574 348.133V279.58H408.574V348.133H420.574ZM414.574 273.58H288.046V285.58H414.574V273.58ZM288.046 273.58C288.79 273.58 289.501 273.877 290.022 274.4L281.526 282.874C283.253 284.605 285.598 285.58 288.046 285.58V273.58ZM290.022 274.4C290.543 274.922 290.833 275.627 290.833 276.359H278.833C278.833 278.8 279.8 281.143 281.526 282.874L290.022 274.4ZM290.833 276.359C290.833 277.091 290.543 277.796 290.022 278.318L281.526 269.844C279.8 271.575 278.833 273.918 278.833 276.359H290.833ZM290.022 278.318C289.501 278.841 288.79 279.138 288.046 279.138V267.138C285.597 267.138 283.252 268.113 281.526 269.844L290.022 278.318ZM288.046 279.138H417.787V267.138H288.046V279.138ZM417.787 279.138C417.043 279.138 416.332 278.841 415.811 278.318L424.307 269.844C422.581 268.113 420.236 267.138 417.787 267.138V279.138ZM415.811 278.318C415.29 277.796 415 277.091 415 276.359H427C427 273.918 426.033 271.575 424.307 269.844L415.811 278.318ZM415 276.359V348.133H427V276.359H415ZM415 348.133C415 347.401 415.29 346.696 415.811 346.174L424.307 354.648C426.033 352.917 427 350.574 427 348.133H415ZM415.811 346.174C416.332 345.651 417.043 345.354 417.787 345.354V357.354C420.236 357.354 422.581 356.379 424.307 354.648L415.811 346.174ZM389.814 20.4589C381.877 13.8533 372.77 14.2484 366.004 16.4387L369.699 27.8555C374.022 26.4561 378.394 26.5671 382.137 29.6822L389.814 20.4589ZM396.888 33.1179C396.295 28.2694 393.91 23.8692 389.814 20.4592L382.137 29.6819C383.978 31.215 384.769 32.8784 384.977 34.5739L396.888 33.1179ZM394.904 45.2245C396.334 41.8882 397.445 37.6788 396.888 33.118L384.977 34.5738C385.193 36.3441 384.793 38.353 383.874 40.4968L394.904 45.2245ZM383.565 60.4187C387.166 57.2111 392.134 51.6877 394.904 45.2245L383.874 40.4969C382.047 44.76 378.444 48.9097 375.583 51.4584L383.565 60.4187ZM251.29 200.488L383.936 60.0586L375.212 51.8185L242.567 192.247L251.29 200.488ZM251.66 265.096C261.236 229.021 260.727 207.743 252.077 193.287L241.78 199.448C247.736 209.403 249.525 226.364 240.062 262.017L251.66 265.096ZM235.509 298.818C242.986 286.845 249.018 275.05 251.66 265.095L240.062 262.017C237.885 270.219 232.614 280.799 225.331 292.461L235.509 298.818ZM208.432 336.268C218.47 323.895 227.932 310.952 235.509 298.818L225.331 292.461C218.074 304.082 208.919 316.62 199.113 328.708L208.432 336.268ZM149.544 394.475C165.561 384.105 188.578 360.743 208.432 336.268L199.113 328.708C179.443 352.956 157.394 375.097 143.022 384.401L149.544 394.475ZM142.572 395.826C144.984 396.294 147.482 395.809 149.544 394.475L143.022 384.401C143.564 384.051 144.222 383.922 144.859 384.046L142.572 395.826ZM134.95 393.07C137.28 394.194 139.972 395.321 142.571 395.826L144.859 384.046C143.806 383.841 142.232 383.259 140.16 382.261L134.95 393.07ZM126.975 388.704C129.765 390.37 132.476 391.878 134.95 393.07L140.16 382.261C138.125 381.279 135.747 379.965 133.127 378.4L126.975 388.704ZM108.877 376.856C115.037 381.131 121.389 385.368 126.975 388.704L133.127 378.4C127.887 375.272 121.794 371.214 115.72 366.998L108.877 376.856ZM91.4834 364.436C96.5894 368.152 102.696 372.565 108.877 376.856L115.72 366.998C109.651 362.785 103.633 358.436 98.5449 354.734L91.4834 364.436ZM88.0264 361.917C89.1118 362.708 90.2682 363.552 91.4834 364.436L98.5449 354.734C97.3352 353.853 96.1834 353.013 95.0975 352.221L88.0264 361.917ZM80.1119 356.204C81.7687 357.353 84.487 359.335 88.0265 361.917L95.0975 352.221C91.6221 349.687 88.7561 347.596 86.9515 346.344L80.1119 356.204ZM76.0387 348.966C76.2167 351.872 77.715 354.541 80.1119 356.204L86.9515 346.344C87.5807 346.78 87.97 347.478 88.0163 348.233L76.0387 348.966ZM79.1962 341.286C77.0218 343.229 75.8607 346.06 76.0387 348.966L88.0163 348.233C88.0625 348.987 87.7613 349.726 87.1918 350.234L79.1962 341.286ZM84.3533 336.74C82.3986 338.454 80.6492 339.988 79.1962 341.286L87.1917 350.234C88.5942 348.981 90.2969 347.488 92.2653 345.762L84.3533 336.74ZM113.835 309.524C102.968 320.413 91.9639 330.065 84.3533 336.74L92.2653 345.762C99.8633 339.099 111.146 329.206 122.329 318.001L113.835 309.524ZM139.694 278.999C133.27 288.868 123.84 299.499 113.835 309.524L122.329 318.001C132.559 307.75 142.661 296.437 149.751 285.546L139.694 278.999ZM113.159 307.99C126.029 300.967 138.33 293.371 147.913 287.354L141.532 277.191C131.992 283.181 119.946 290.616 107.411 297.457L113.159 307.99ZM56.9333 329.284C73.6526 327.807 94.8114 318.003 113.159 307.99L107.411 297.457C88.9741 307.518 69.8174 316.099 55.8779 317.33L56.9333 329.284ZM49.4798 326.635C51.4601 328.558 54.1799 329.527 56.9333 329.284L55.8779 317.33C56.6048 317.266 57.3205 317.522 57.8395 318.026L49.4798 326.635ZM25.4537 280.018C31.8336 302.425 40.973 318.375 49.4798 326.635L57.8395 318.026C51.3921 311.765 43.0539 298.012 36.9949 276.732L25.4537 280.018ZM17.8834 190.496C15.1683 227.409 18.9991 257.35 25.4537 280.018L36.9949 276.732C30.9555 255.521 27.2308 226.999 29.851 191.377L17.8834 190.496ZM22.5596 182.985C19.8575 184.569 18.1126 187.38 17.8834 190.496L29.851 191.377C29.7915 192.186 29.338 192.921 28.6279 193.337L22.5596 182.985ZM31.4092 182.586C28.5735 181.25 25.263 181.4 22.5597 182.985L28.6279 193.337C27.9165 193.754 27.0437 193.794 26.2966 193.442L31.4092 182.586ZM71.4053 192.608C54.311 191.209 39.4946 186.393 31.4092 182.586L26.2966 193.442C35.6311 197.838 51.8435 203.047 70.4266 204.568L71.4053 192.608ZM123.397 182.874C107.059 191.939 88.4747 194.004 71.4052 192.608L70.4266 204.568C89.0168 206.089 110.177 203.933 129.219 193.366L123.397 182.874ZM176.575 157.204C162.465 161.182 146.064 170.296 123.397 182.874L129.219 193.367C152.429 180.488 167.392 172.261 179.831 168.754L176.575 157.204ZM217.22 160.691C203.183 154.339 191.017 153.132 176.575 157.204L179.831 168.754C191.334 165.511 200.599 166.341 212.272 171.624L217.22 160.691ZM350.719 25.7522L210.566 161.853L218.926 170.462L359.079 34.361L350.719 25.7522ZM366.004 16.4387C359.449 18.5605 353.945 22.6204 350.719 25.752L359.079 34.3613C361.358 32.1485 365.329 29.2702 369.699 27.8555L366.004 16.4387ZM363.956 39.4101C365.68 37.7359 368.755 35.5469 371.853 34.5442L368.157 23.1274C362.877 24.8367 358.268 28.2067 355.596 30.8009L363.956 39.4101ZM222.068 177.196L363.956 39.4099L355.596 30.8011L213.708 168.587L222.068 177.196ZM211.301 178.928C214.899 180.675 219.201 179.98 222.068 177.196L213.708 168.587C214.46 167.857 215.593 167.672 216.542 168.133L211.301 178.928ZM181.728 175.52C187.066 174.015 191.599 173.564 196.092 174.065C200.622 174.571 205.441 176.082 211.301 178.928L216.542 168.133C209.87 164.893 203.706 162.841 197.423 162.139C191.102 161.434 184.992 162.132 178.472 163.97L181.728 175.52ZM132.614 199.516C156.148 186.457 170.266 178.752 181.728 175.52L178.472 163.97C165.337 167.673 149.773 176.271 126.791 189.023L132.614 199.516ZM69.8564 211.573C89.3311 213.166 111.993 210.958 132.614 199.516L126.791 189.023C108.876 198.964 88.7903 201.082 70.835 199.613L69.8564 211.573ZM28.2931 201.966C38.4901 206.068 53.277 210.216 69.8564 211.573L70.835 199.613C55.573 198.364 41.9634 194.531 32.7717 190.833L28.2931 201.966ZM43.7358 274.803C38.2117 255.402 34.6257 229.338 36.5223 196.748L24.5425 196.051C22.5738 229.88 26.2747 257.298 32.1945 278.089L43.7358 274.803ZM61.8023 312.042C56.5445 306.398 49.25 294.169 43.7358 274.803L32.1945 278.089C38.0338 298.597 46.0585 312.747 53.022 320.222L61.8023 312.042ZM104.059 291.283C86.3277 300.96 68.9858 308.636 56.6667 310.178L58.1576 322.085C72.9619 320.232 92.0823 311.49 109.808 301.817L104.059 291.283ZM142.334 268.388C132.24 274.748 118.509 283.398 104.059 291.283L109.808 301.817C124.633 293.727 138.663 284.884 148.731 278.541L142.334 268.388ZM149.183 264.091C147.161 265.346 144.854 266.8 142.334 268.388L148.731 278.541C151.262 276.946 153.53 275.517 155.51 274.288L149.183 264.091ZM160.379 264.957C157.236 262.258 152.706 261.906 149.183 264.091L155.51 274.288C154.582 274.864 153.388 274.77 152.562 274.061L160.379 264.957ZM162.949 275.875C164.553 272.067 163.519 267.653 160.379 264.957L152.562 274.061C151.74 273.356 151.473 272.206 151.89 271.216L162.949 275.875ZM127.284 322.973C141.283 308.946 156.226 291.835 162.949 275.875L151.89 271.216C146.155 284.83 132.742 300.515 118.79 314.496L127.284 322.973ZM96.7955 351.128C104.384 344.474 115.913 334.367 127.284 322.973L118.79 314.496C107.736 325.573 96.4847 335.44 88.884 342.105L96.7955 351.128ZM95.1179 352.599C95.6528 352.13 96.212 351.639 96.7956 351.128L88.884 342.105C88.3012 342.616 87.7388 343.109 87.2005 343.582L95.1179 352.599ZM99.2877 346.586C97.596 345.352 96.0393 344.216 94.6781 343.231L87.6403 352.95C88.9814 353.921 90.5199 355.044 92.2165 356.281L99.2877 346.586ZM102.663 349.046C101.489 348.191 100.36 347.368 99.2876 346.586L92.2166 356.281C93.2885 357.063 94.4218 357.889 95.6015 358.748L102.663 349.046ZM119.71 361.219C113.708 357.052 107.74 352.741 102.663 349.046L95.6015 358.748C100.697 362.456 106.752 366.832 112.868 371.077L119.71 361.219ZM136.714 372.362C131.677 369.354 125.735 365.401 119.71 361.219L112.868 371.077C118.977 375.318 125.178 379.45 130.562 382.665L136.714 372.362ZM143.198 375.926C141.418 375.068 139.235 373.867 136.714 372.362L130.562 382.665C133.253 384.271 135.769 385.667 137.987 386.736L143.198 375.926ZM145.717 377.002C145.169 376.814 144.338 376.476 143.198 375.926L137.987 386.736C139.409 387.421 140.695 387.965 141.824 388.353L145.717 377.002ZM193.675 324.273C174.716 347.645 153.911 368.542 140.401 377.713L147.141 387.641C162.125 377.469 183.814 355.477 202.994 331.833L193.675 324.273ZM219.39 288.731C212.321 300.05 203.346 312.352 193.675 324.273L202.994 331.833C212.896 319.627 222.178 306.921 229.568 295.087L219.39 288.731ZM233.287 260.21C231.384 267.383 226.56 277.25 219.39 288.731L229.568 295.087C236.931 283.297 242.517 272.215 244.886 263.288L233.287 260.21ZM234.766 201.54C239.747 208.45 243.345 222.319 233.287 260.209L244.886 263.288C255.058 224.964 252.909 206.188 244.5 194.523L234.766 201.54ZM235.567 189.436C232.431 192.756 232.097 197.837 234.766 201.54L244.5 194.523C245.196 195.488 245.11 196.809 244.291 197.676L235.567 189.436ZM370.229 46.8726L235.567 189.436L244.291 197.676L378.953 55.1127L370.229 46.8726ZM370.848 46.2738C370.633 46.4642 370.426 46.6638 370.23 46.8718L378.952 55.1135C378.901 55.1673 378.847 55.2194 378.791 55.2695L370.848 46.2738ZM377.434 37.7216C376.14 40.7397 373.277 44.1294 370.848 46.2737L378.79 55.2696C381.972 52.4612 386.218 47.6885 388.463 42.4493L377.434 37.7216ZM378.019 35.4288C378.035 35.5627 378.052 36.2805 377.434 37.7216L388.463 42.4493C389.594 39.8109 390.287 36.8938 389.93 33.9729L378.019 35.4288ZM377.659 35.0899C377.989 35.3645 378.055 35.5049 378.041 35.479C378.037 35.472 378.028 35.4537 378.021 35.4307C378.014 35.4092 378.016 35.4051 378.019 35.4289L389.93 33.9728C389.564 30.9784 388.116 28.1814 385.337 25.8674L377.659 35.0899ZM371.853 34.5442C374.704 33.6212 376.335 33.9883 377.659 35.0903L385.336 25.867C379.859 21.3086 373.52 21.3916 368.157 23.1274L371.853 34.5442Z" fill="url(#paint0_linear_1_2)" mask="url(#path-1-outside-1_1_2)"/>
<path d="M128.934 186.67C128.134 185.22 126.309 184.693 124.858 185.494C123.408 186.294 122.881 188.119 123.682 189.57L128.934 186.67ZM125.283 192.47C126.083 193.921 127.908 194.448 129.359 193.647C130.809 192.846 131.336 191.021 130.536 189.571L125.283 192.47ZM357.057 27.9723C355.906 26.7806 354.006 26.7478 352.815 27.8989C351.623 29.0501 351.59 30.9493 352.741 32.141L357.057 27.9723ZM355.18 34.6653C356.331 35.857 358.23 35.8898 359.422 34.7387C360.614 33.5875 360.646 31.6883 359.495 30.4967L355.18 34.6653ZM239.86 258.85C238.259 258.423 236.615 259.375 236.188 260.975C235.761 262.576 236.712 264.22 238.313 264.647L239.86 258.85ZM241.633 265.533C243.234 265.96 244.878 265.009 245.305 263.408C245.732 261.807 244.78 260.163 243.18 259.736L241.633 265.533ZM130.536 189.571L128.934 186.67L123.682 189.57L125.283 192.47L130.536 189.571ZM359.495 30.4967L357.057 27.9723L352.741 32.141L355.18 34.6653L359.495 30.4967ZM243.18 259.736L239.86 258.85L238.313 264.647L241.633 265.533L243.18 259.736ZM275.194 361.019H269.194V367.019H275.194V361.019ZM398.509 361.019V367.019H404.509V361.019H398.509ZM398.509 295.688H404.509V289.688H398.509V295.688ZM275.194 295.688V289.688H269.194V295.688H275.194ZM414.574 279.58H420.574V273.58H414.574V279.58ZM385.975 25.0705L389.814 20.4592L389.814 20.4589L385.975 25.0705ZM367.851 22.1471L366.004 16.4387L366.004 16.4387L367.851 22.1471ZM390.932 33.8459L396.888 33.118L396.888 33.1179L390.932 33.8459ZM389.389 42.8607L383.874 40.4968L383.874 40.4969L389.389 42.8607ZM379.574 55.9385L375.583 51.4584C375.454 51.5731 375.331 51.6932 375.212 51.8185L379.574 55.9385ZM246.929 196.368L242.567 192.247C240.722 194.201 240.4 197.142 241.78 199.448L246.929 196.368ZM245.861 263.556L240.062 262.017L240.062 262.017L245.861 263.556ZM230.42 295.639L225.331 292.461L225.331 292.461L230.42 295.639ZM203.773 332.488L208.432 336.268L208.432 336.268L203.773 332.488ZM146.283 389.438L143.022 384.401L143.022 384.401L146.283 389.438ZM143.715 389.936L142.571 395.826L142.572 395.826L143.715 389.936ZM137.555 387.665L134.95 393.07L134.95 393.07L137.555 387.665ZM130.051 383.552L133.127 378.4L133.127 378.4L130.051 383.552ZM112.299 371.927L115.72 366.998L115.72 366.998L112.299 371.927ZM95.0142 359.585L91.4834 364.436L91.4834 364.436L95.0142 359.585ZM91.562 357.069L95.0975 352.221L95.0975 352.221L91.562 357.069ZM83.5317 351.274L80.1119 356.204L80.1119 356.204L83.5317 351.274ZM82.0275 348.599L88.0163 348.233L88.0163 348.233L82.0275 348.599ZM83.194 345.76L79.1962 341.286L79.1962 341.286L83.194 345.76ZM88.3093 341.251L92.2653 345.762L92.2653 345.762L88.3093 341.251ZM118.082 313.763L113.835 309.524L113.835 309.524L118.082 313.763ZM144.723 282.273L149.751 285.546C151.288 283.186 150.976 280.073 149 278.065C147.025 276.057 143.918 275.693 141.532 277.191L144.723 282.273ZM110.285 302.724L107.411 297.457L107.411 297.457L110.285 302.724ZM56.4056 323.307L56.9333 329.284L56.9333 329.284L56.4056 323.307ZM53.6596 322.331L57.8395 318.026L57.8395 318.026L53.6596 322.331ZM31.2243 278.375L25.4537 280.018L25.4537 280.018L31.2243 278.375ZM23.8672 190.936L17.8834 190.496L17.8834 190.496L23.8672 190.936ZM25.5938 188.161L22.5597 182.985L22.5596 182.985L25.5938 188.161ZM28.8529 188.014L31.4092 182.586L31.4092 182.586L28.8529 188.014ZM70.9159 198.588L70.4266 204.568L70.4266 204.568L70.9159 198.588ZM126.308 188.12L123.397 182.874L123.397 182.874L126.308 188.12ZM178.203 162.979L176.575 157.204L176.575 157.204L178.203 162.979ZM214.746 166.158L212.272 171.624C214.518 172.64 217.158 172.179 218.926 170.462L214.746 166.158ZM354.899 30.0566L350.719 25.752L350.719 25.7522L354.899 30.0566ZM359.776 35.1055L355.596 30.8009L355.596 30.8011L359.776 35.1055ZM370.005 28.8358L368.157 23.1274L368.157 23.1274L370.005 28.8358ZM217.888 172.892L222.068 177.196L222.068 177.196L217.888 172.892ZM213.922 173.53L216.542 168.133L216.542 168.133L213.922 173.53ZM180.1 169.745L181.728 175.52L181.728 175.52L180.1 169.745ZM129.703 194.27L126.791 189.023L126.791 189.023L129.703 194.27ZM70.3457 205.593L69.8564 211.573L69.8564 211.573L70.3457 205.593ZM30.5324 196.399L32.7717 190.833C30.9799 190.112 28.9506 190.298 27.3194 191.332C25.6883 192.367 24.6548 194.123 24.5425 196.051L30.5324 196.399ZM37.9652 276.446L32.1945 278.089L32.1945 278.089L37.9652 276.446ZM57.4121 316.132L53.022 320.222C54.3353 321.631 56.2458 322.325 58.1576 322.085L57.4121 316.132ZM106.934 296.55L104.059 291.283L104.059 291.283L106.934 296.55ZM145.532 273.464L148.731 278.541L148.731 278.541L145.532 273.464ZM152.346 269.19L149.183 264.091L149.183 264.091L152.346 269.19ZM157.42 273.546L151.89 271.216L151.89 271.216L157.42 273.546ZM123.037 318.734L118.79 314.496L118.79 314.496L123.037 318.734ZM92.8398 346.616L88.884 342.105L88.884 342.105L92.8398 346.616ZM91.1592 348.091L87.2005 343.582C85.829 344.786 85.0802 346.549 85.1658 348.372C85.2514 350.195 86.1621 351.88 87.6403 352.95L91.1592 348.091ZM95.7521 351.433L92.2165 356.281L92.2166 356.281L95.7521 351.433ZM99.1322 353.897L102.663 349.046L102.663 349.046L99.1322 353.897ZM116.289 366.148L112.868 371.077L112.868 371.077L116.289 366.148ZM133.638 377.513L130.562 382.665L130.562 382.665L133.638 377.513ZM140.592 381.331L137.987 386.736L137.987 386.736L140.592 381.331ZM143.771 382.677L141.824 388.353C143.609 388.965 145.579 388.702 147.141 387.641L143.771 382.677ZM198.334 328.053L193.675 324.273L193.675 324.273L198.334 328.053ZM224.479 291.909L229.568 295.087L229.568 295.087L224.479 291.909ZM239.087 261.749L233.287 260.209L233.287 260.21L239.087 261.749ZM239.633 198.031L234.766 201.54L234.766 201.54L239.633 198.031ZM239.929 193.556L244.291 197.676L244.291 197.676L239.929 193.556ZM374.591 50.9926L370.23 46.8718L370.229 46.8726L374.591 50.9926ZM374.819 50.7716L370.848 46.2737L370.848 46.2738L374.819 50.7716ZM382.949 40.0854L388.463 42.4493L388.463 42.4493L382.949 40.0854ZM383.974 34.7008L389.93 33.9729L389.93 33.9728L383.974 34.7008ZM381.498 30.4787L385.337 25.8674L385.336 25.867L381.498 30.4787ZM401.722 361.462H271.981V373.462H401.722V361.462ZM271.981 361.462C272.725 361.462 273.436 361.758 273.957 362.281L265.461 370.755C267.188 372.486 269.533 373.462 271.981 373.462V361.462ZM273.957 362.281C274.478 362.803 274.768 363.508 274.768 364.24H262.768C262.768 366.681 263.735 369.025 265.461 370.755L273.957 362.281ZM274.768 364.24V292.466H262.768V364.24H274.768ZM274.768 292.466C274.768 293.198 274.478 293.903 273.957 294.425L265.461 285.951C263.735 287.682 262.768 290.026 262.768 292.466H274.768ZM273.957 294.425C273.436 294.948 272.726 295.245 271.981 295.245V283.245C269.532 283.245 267.187 284.22 265.461 285.951L273.957 294.425ZM271.981 295.245H401.722V283.245H271.981V295.245ZM401.722 295.245C400.978 295.245 400.267 294.948 399.746 294.425L408.242 285.951C406.516 284.22 404.171 283.245 401.722 283.245V295.245ZM399.746 294.425C399.225 293.903 398.935 293.198 398.935 292.466H410.935C410.935 290.026 409.968 287.682 408.242 285.951L399.746 294.425ZM398.935 292.466V364.24H410.935V292.466H398.935ZM398.935 364.24C398.935 363.508 399.225 362.803 399.746 362.281L408.242 370.755C409.968 369.025 410.935 366.681 410.935 364.24H398.935ZM399.746 362.281C400.267 361.758 400.978 361.462 401.722 361.462V373.462C404.17 373.462 406.515 372.486 408.242 370.755L399.746 362.281ZM275.194 367.019H398.509V355.019H275.194V367.019ZM404.509 361.019V295.688H392.509V361.019H404.509ZM398.509 289.688H275.194V301.688H398.509V289.688ZM269.194 295.688V361.019H281.194V295.688H269.194ZM417.787 345.354C418.531 345.354 419.242 345.651 419.763 346.174L411.267 354.648C412.993 356.379 415.338 357.354 417.787 357.354V345.354ZM419.763 346.174C420.284 346.696 420.574 347.401 420.574 348.133H408.574C408.574 350.573 409.541 352.917 411.267 354.648L419.763 346.174ZM420.574 348.133V279.58H408.574V348.133H420.574ZM414.574 273.58H288.046V285.58H414.574V273.58ZM288.046 273.58C288.79 273.58 289.501 273.877 290.022 274.4L281.526 282.874C283.253 284.605 285.598 285.58 288.046 285.58V273.58ZM290.022 274.4C290.543 274.922 290.833 275.627 290.833 276.359H278.833C278.833 278.8 279.8 281.143 281.526 282.874L290.022 274.4ZM290.833 276.359C290.833 277.091 290.543 277.796 290.022 278.318L281.526 269.844C279.8 271.575 278.833 273.918 278.833 276.359H290.833ZM290.022 278.318C289.501 278.841 288.79 279.138 288.046 279.138V267.138C285.597 267.138 283.252 268.113 281.526 269.844L290.022 278.318ZM288.046 279.138H417.787V267.138H288.046V279.138ZM417.787 279.138C417.043 279.138 416.332 278.841 415.811 278.318L424.307 269.844C422.581 268.113 420.236 267.138 417.787 267.138V279.138ZM415.811 278.318C415.29 277.796 415 277.091 415 276.359H427C427 273.918 426.033 271.575 424.307 269.844L415.811 278.318ZM415 276.359V348.133H427V276.359H415ZM415 348.133C415 347.401 415.29 346.696 415.811 346.174L424.307 354.648C426.033 352.917 427 350.574 427 348.133H415ZM415.811 346.174C416.332 345.651 417.043 345.354 417.787 345.354V357.354C420.236 357.354 422.581 356.379 424.307 354.648L415.811 346.174ZM389.814 20.4589C381.877 13.8533 372.77 14.2484 366.004 16.4387L369.699 27.8555C374.022 26.4561 378.394 26.5671 382.137 29.6822L389.814 20.4589ZM396.888 33.1179C396.295 28.2694 393.91 23.8692 389.814 20.4592L382.137 29.6819C383.978 31.215 384.769 32.8784 384.977 34.5739L396.888 33.1179ZM394.904 45.2245C396.334 41.8882 397.445 37.6788 396.888 33.118L384.977 34.5738C385.193 36.3441 384.793 38.353 383.874 40.4968L394.904 45.2245ZM383.565 60.4187C387.166 57.2111 392.134 51.6877 394.904 45.2245L383.874 40.4969C382.047 44.76 378.444 48.9097 375.583 51.4584L383.565 60.4187ZM251.29 200.488L383.936 60.0586L375.212 51.8185L242.567 192.247L251.29 200.488ZM251.66 265.096C261.236 229.021 260.727 207.743 252.077 193.287L241.78 199.448C247.736 209.403 249.525 226.364 240.062 262.017L251.66 265.096ZM235.509 298.818C242.986 286.845 249.018 275.05 251.66 265.095L240.062 262.017C237.885 270.219 232.614 280.799 225.331 292.461L235.509 298.818ZM208.432 336.268C218.47 323.895 227.932 310.952 235.509 298.818L225.331 292.461C218.074 304.082 208.919 316.62 199.113 328.708L208.432 336.268ZM149.544 394.475C165.561 384.105 188.578 360.743 208.432 336.268L199.113 328.708C179.443 352.956 157.394 375.097 143.022 384.401L149.544 394.475ZM142.572 395.826C144.984 396.294 147.482 395.809 149.544 394.475L143.022 384.401C143.564 384.051 144.222 383.922 144.859 384.046L142.572 395.826ZM134.95 393.07C137.28 394.194 139.972 395.321 142.571 395.826L144.859 384.046C143.806 383.841 142.232 383.259 140.16 382.261L134.95 393.07ZM126.975 388.704C129.765 390.37 132.476 391.878 134.95 393.07L140.16 382.261C138.125 381.279 135.747 379.965 133.127 378.4L126.975 388.704ZM108.877 376.856C115.037 381.131 121.389 385.368 126.975 388.704L133.127 378.4C127.887 375.272 121.794 371.214 115.72 366.998L108.877 376.856ZM91.4834 364.436C96.5894 368.152 102.696 372.565 108.877 376.856L115.72 366.998C109.651 362.785 103.633 358.436 98.5449 354.734L91.4834 364.436ZM88.0264 361.917C89.1118 362.708 90.2682 363.552 91.4834 364.436L98.5449 354.734C97.3352 353.853 96.1834 353.013 95.0975 352.221L88.0264 361.917ZM80.1119 356.204C81.7687 357.353 84.487 359.335 88.0265 361.917L95.0975 352.221C91.6221 349.687 88.7561 347.596 86.9515 346.344L80.1119 356.204ZM76.0387 348.966C76.2167 351.872 77.715 354.541 80.1119 356.204L86.9515 346.344C87.5807 346.78 87.97 347.478 88.0163 348.233L76.0387 348.966ZM79.1962 341.286C77.0218 343.229 75.8607 346.06 76.0387 348.966L88.0163 348.233C88.0625 348.987 87.7613 349.726 87.1918 350.234L79.1962 341.286ZM84.3533 336.74C82.3986 338.454 80.6492 339.988 79.1962 341.286L87.1917 350.234C88.5942 348.981 90.2969 347.488 92.2653 345.762L84.3533 336.74ZM113.835 309.524C102.968 320.413 91.9639 330.065 84.3533 336.74L92.2653 345.762C99.8633 339.099 111.146 329.206 122.329 318.001L113.835 309.524ZM139.694 278.999C133.27 288.868 123.84 299.499 113.835 309.524L122.329 318.001C132.559 307.75 142.661 296.437 149.751 285.546L139.694 278.999ZM113.159 307.99C126.029 300.967 138.33 293.371 147.913 287.354L141.532 277.191C131.992 283.181 119.946 290.616 107.411 297.457L113.159 307.99ZM56.9333 329.284C73.6526 327.807 94.8114 318.003 113.159 307.99L107.411 297.457C88.9741 307.518 69.8174 316.099 55.8779 317.33L56.9333 329.284ZM49.4798 326.635C51.4601 328.558 54.1799 329.527 56.9333 329.284L55.8779 317.33C56.6048 317.266 57.3205 317.522 57.8395 318.026L49.4798 326.635ZM25.4537 280.018C31.8336 302.425 40.973 318.375 49.4798 326.635L57.8395 318.026C51.3921 311.765 43.0539 298.012 36.9949 276.732L25.4537 280.018ZM17.8834 190.496C15.1683 227.409 18.9991 257.35 25.4537 280.018L36.9949 276.732C30.9555 255.521 27.2308 226.999 29.851 191.377L17.8834 190.496ZM22.5596 182.985C19.8575 184.569 18.1126 187.38 17.8834 190.496L29.851 191.377C29.7915 192.186 29.338 192.921 28.6279 193.337L22.5596 182.985ZM31.4092 182.586C28.5735 181.25 25.263 181.4 22.5597 182.985L28.6279 193.337C27.9165 193.754 27.0437 193.794 26.2966 193.442L31.4092 182.586ZM71.4053 192.608C54.311 191.209 39.4946 186.393 31.4092 182.586L26.2966 193.442C35.6311 197.838 51.8435 203.047 70.4266 204.568L71.4053 192.608ZM123.397 182.874C107.059 191.939 88.4747 194.004 71.4052 192.608L70.4266 204.568C89.0168 206.089 110.177 203.933 129.219 193.366L123.397 182.874ZM176.575 157.204C162.465 161.182 146.064 170.296 123.397 182.874L129.219 193.367C152.429 180.488 167.392 172.261 179.831 168.754L176.575 157.204ZM217.22 160.691C203.183 154.339 191.017 153.132 176.575 157.204L179.831 168.754C191.334 165.511 200.599 166.341 212.272 171.624L217.22 160.691ZM350.719 25.7522L210.566 161.853L218.926 170.462L359.079 34.361L350.719 25.7522ZM366.004 16.4387C359.449 18.5605 353.945 22.6204 350.719 25.752L359.079 34.3613C361.358 32.1485 365.329 29.2702 369.699 27.8555L366.004 16.4387ZM363.956 39.4101C365.68 37.7359 368.755 35.5469 371.853 34.5442L368.157 23.1274C362.877 24.8367 358.268 28.2067 355.596 30.8009L363.956 39.4101ZM222.068 177.196L363.956 39.4099L355.596 30.8011L213.708 168.587L222.068 177.196ZM211.301 178.928C214.899 180.675 219.201 179.98 222.068 177.196L213.708 168.587C214.46 167.857 215.593 167.672 216.542 168.133L211.301 178.928ZM181.728 175.52C187.066 174.015 191.599 173.564 196.092 174.065C200.622 174.571 205.441 176.082 211.301 178.928L216.542 168.133C209.87 164.893 203.706 162.841 197.423 162.139C191.102 161.434 184.992 162.132 178.472 163.97L181.728 175.52ZM132.614 199.516C156.148 186.457 170.266 178.752 181.728 175.52L178.472 163.97C165.337 167.673 149.773 176.271 126.791 189.023L132.614 199.516ZM69.8564 211.573C89.3311 213.166 111.993 210.958 132.614 199.516L126.791 189.023C108.876 198.964 88.7903 201.082 70.835 199.613L69.8564 211.573ZM28.2931 201.966C38.4901 206.068 53.277 210.216 69.8564 211.573L70.835 199.613C55.573 198.364 41.9634 194.531 32.7717 190.833L28.2931 201.966ZM43.7358 274.803C38.2117 255.402 34.6257 229.338 36.5223 196.748L24.5425 196.051C22.5738 229.88 26.2747 257.298 32.1945 278.089L43.7358 274.803ZM61.8023 312.042C56.5445 306.398 49.25 294.169 43.7358 274.803L32.1945 278.089C38.0338 298.597 46.0585 312.747 53.022 320.222L61.8023 312.042ZM104.059 291.283C86.3277 300.96 68.9858 308.636 56.6667 310.178L58.1576 322.085C72.9619 320.232 92.0823 311.49 109.808 301.817L104.059 291.283ZM142.334 268.388C132.24 274.748 118.509 283.398 104.059 291.283L109.808 301.817C124.633 293.727 138.663 284.884 148.731 278.541L142.334 268.388ZM149.183 264.091C147.161 265.346 144.854 266.8 142.334 268.388L148.731 278.541C151.262 276.946 153.53 275.517 155.51 274.288L149.183 264.091ZM160.379 264.957C157.236 262.258 152.706 261.906 149.183 264.091L155.51 274.288C154.582 274.864 153.388 274.77 152.562 274.061L160.379 264.957ZM162.949 275.875C164.553 272.067 163.519 267.653 160.379 264.957L152.562 274.061C151.74 273.356 151.473 272.206 151.89 271.216L162.949 275.875ZM127.284 322.973C141.283 308.946 156.226 291.835 162.949 275.875L151.89 271.216C146.155 284.83 132.742 300.515 118.79 314.496L127.284 322.973ZM96.7955 351.128C104.384 344.474 115.913 334.367 127.284 322.973L118.79 314.496C107.736 325.573 96.4847 335.44 88.884 342.105L96.7955 351.128ZM95.1179 352.599C95.6528 352.13 96.212 351.639 96.7956 351.128L88.884 342.105C88.3012 342.616 87.7388 343.109 87.2005 343.582L95.1179 352.599ZM99.2877 346.586C97.596 345.352 96.0393 344.216 94.6781 343.231L87.6403 352.95C88.9814 353.921 90.5199 355.044 92.2165 356.281L99.2877 346.586ZM102.663 349.046C101.489 348.191 100.36 347.368 99.2876 346.586L92.2166 356.281C93.2885 357.063 94.4218 357.889 95.6015 358.748L102.663 349.046ZM119.71 361.219C113.708 357.052 107.74 352.741 102.663 349.046L95.6015 358.748C100.697 362.456 106.752 366.832 112.868 371.077L119.71 361.219ZM136.714 372.362C131.677 369.354 125.735 365.401 119.71 361.219L112.868 371.077C118.977 375.318 125.178 379.45 130.562 382.665L136.714 372.362ZM143.198 375.926C141.418 375.068 139.235 373.867 136.714 372.362L130.562 382.665C133.253 384.271 135.769 385.667 137.987 386.736L143.198 375.926ZM145.717 377.002C145.169 376.814 144.338 376.476 143.198 375.926L137.987 386.736C139.409 387.421 140.695 387.965 141.824 388.353L145.717 377.002ZM193.675 324.273C174.716 347.645 153.911 368.542 140.401 377.713L147.141 387.641C162.125 377.469 183.814 355.477 202.994 331.833L193.675 324.273ZM219.39 288.731C212.321 300.05 203.346 312.352 193.675 324.273L202.994 331.833C212.896 319.627 222.178 306.921 229.568 295.087L219.39 288.731ZM233.287 260.21C231.384 267.383 226.56 277.25 219.39 288.731L229.568 295.087C236.931 283.297 242.517 272.215 244.886 263.288L233.287 260.21ZM234.766 201.54C239.747 208.45 243.345 222.319 233.287 260.209L244.886 263.288C255.058 224.964 252.909 206.188 244.5 194.523L234.766 201.54ZM235.567 189.436C232.431 192.756 232.097 197.837 234.766 201.54L244.5 194.523C245.196 195.488 245.11 196.809 244.291 197.676L235.567 189.436ZM370.229 46.8726L235.567 189.436L244.291 197.676L378.953 55.1127L370.229 46.8726ZM370.848 46.2738C370.633 46.4642 370.426 46.6638 370.23 46.8718L378.952 55.1135C378.901 55.1673 378.847 55.2194 378.791 55.2695L370.848 46.2738ZM377.434 37.7216C376.14 40.7397 373.277 44.1294 370.848 46.2737L378.79 55.2696C381.972 52.4612 386.218 47.6885 388.463 42.4493L377.434 37.7216ZM378.019 35.4288C378.035 35.5627 378.052 36.2805 377.434 37.7216L388.463 42.4493C389.594 39.8109 390.287 36.8938 389.93 33.9729L378.019 35.4288ZM377.659 35.0899C377.989 35.3645 378.055 35.5049 378.041 35.479C378.037 35.472 378.028 35.4537 378.021 35.4307C378.014 35.4092 378.016 35.4051 378.019 35.4289L389.93 33.9728C389.564 30.9784 388.116 28.1814 385.337 25.8674L377.659 35.0899ZM371.853 34.5442C374.704 33.6212 376.335 33.9883 377.659 35.0903L385.336 25.867C379.859 21.3086 373.52 21.3916 368.157 23.1274L371.853 34.5442Z" fill="url(#paint1_linear_1_2)" style="mix-blend-mode:color-burn" mask="url(#path-1-outside-1_1_2)"/>
<defs>
<linearGradient id="paint0_linear_1_2" x1="222" y1="21" x2="222" y2="390" gradientUnits="userSpaceOnUse">
<stop stop-color="#FFD60A" stop-opacity="0.90625"/>
<stop offset="1" stop-color="#FB8500"/>
</linearGradient>
<linearGradient id="paint1_linear_1_2" x1="222" y1="21" x2="222" y2="390" gradientUnits="userSpaceOnUse">
<stop stop-color="#FFD60A" stop-opacity="0.90625"/>
<stop offset="1" stop-color="#FB8500"/>
</linearGradient>
</defs>
</svg>
