<svg width="444" height="411" viewBox="0 0 444 411" fill="none" xmlns="http://www.w3.org/2000/svg">
<path d="M422.494 385.896H277.758C276.807 385.896 275.896 385.518 275.223 384.845C274.551 384.172 274.174 383.26 274.174 382.308V302.365C274.174 301.413 274.551 300.501 275.223 299.828C275.896 299.155 276.807 298.777 277.758 298.777H422.494C423.445 298.777 424.356 299.155 425.028 299.828C425.701 300.501 426.078 301.413 426.078 302.365V382.308C426.078 383.26 425.701 384.172 425.028 384.845C424.356 385.518 423.445 385.896 422.494 385.896ZM281.342 378.72H418.91V305.953H281.342V378.72Z" fill="currentColor"/>
<path d="M440.416 367.956C439.465 367.956 438.553 367.578 437.881 366.905C437.209 366.232 436.831 365.319 436.831 364.368V288.012H295.68C294.729 288.012 293.817 287.634 293.145 286.961C292.473 286.289 292.095 285.376 292.095 284.424C292.095 283.473 292.473 282.56 293.145 281.887C293.817 281.214 294.729 280.836 295.68 280.836H440.416C441.366 280.836 442.278 281.214 442.95 281.887C443.622 282.56 444 283.473 444 284.424V364.368C444 365.319 443.622 366.232 442.95 366.905C442.278 367.578 441.366 367.956 440.416 367.956Z" fill="currentColor"/>
<path fill-rule="evenodd" clip-rule="evenodd" d="M384.709 1.27768C390.894 -0.721461 398.413 -0.879688 404.927 4.53386C408.239 7.28672 410.011 10.6636 410.457 14.308C410.889 17.8339 410.046 21.297 408.736 24.3489C406.171 30.3225 401.391 35.7096 397.786 38.9153L249.81 195.328C257.957 208.923 259.239 230.218 248.619 270.164C245.931 280.276 239.626 292.737 231.394 305.899C223.119 319.128 212.734 333.32 201.666 346.942C179.62 374.077 154.482 399.417 137.532 410.374C136.684 410.922 135.658 411.121 134.667 410.929C132.63 410.534 130.25 409.582 127.795 408.4C125.28 407.189 122.442 405.617 119.424 403.818C113.385 400.218 106.443 395.599 99.6196 390.87C92.7865 386.134 86.0233 381.255 80.3374 377.123C78.9849 376.14 77.6973 375.203 76.4862 374.321C72.5734 371.471 69.4586 369.203 67.5279 367.866C66.5418 367.183 65.9233 366.085 65.8498 364.887C65.7763 363.689 66.2559 362.523 67.1511 361.725C68.7438 360.304 70.6694 358.618 72.8576 356.702C81.3408 349.274 93.7724 338.39 106.071 326.085C117.358 314.793 128.253 302.572 135.791 291.011C125.124 297.697 111.544 306.069 97.3729 313.79C76.8552 324.969 54.3677 335.208 37.2665 336.716C36.1362 336.815 35.0183 336.419 34.2032 335.628C25.8619 327.541 16.1132 310.999 9.17485 286.67C2.20585 262.233 -2.00856 229.674 0.967421 189.279C1.06209 187.994 1.78239 186.838 2.89354 186.187C4.00469 185.537 5.36436 185.476 6.52937 186.024C16.246 190.592 33.5535 196.175 53.454 197.801C73.3445 199.426 95.514 197.075 115.248 186.142C140.838 171.965 158.332 162.307 173.141 158.139C187.613 154.065 199.567 155.2 213.908 161.68L370.259 10.0875C373.329 7.11112 378.615 3.24717 384.709 1.27768ZM387.111 8.72767C382.438 10.238 378.152 13.3339 375.7 15.711L217.412 169.18C216.233 170.324 214.466 170.608 212.988 169.891C199.006 163.114 188.485 161.952 175.258 165.675C161.537 169.537 144.981 178.617 119.035 192.991C97.5404 204.9 73.6958 207.309 52.8178 205.604C35.0571 204.153 19.2178 199.707 8.40299 195.364C6.24698 232.353 10.3115 262.138 16.6948 284.521C23.0277 306.727 31.5725 321.418 38.3894 328.724C53.5186 326.833 73.8568 317.689 93.6344 306.914C109.964 298.017 125.448 288.275 136.694 281.2C139.512 279.427 142.064 277.822 144.296 276.439C145.743 275.543 147.604 275.686 148.897 276.795C150.19 277.903 150.618 279.721 149.956 281.291C143.006 297.761 127.19 316.025 111.599 331.623C99.0906 344.137 86.3839 355.261 77.9117 362.678C77.2611 363.248 76.6355 363.796 76.0369 364.32C77.5442 365.41 79.2707 366.667 81.1606 368.044C82.3568 368.915 83.6185 369.833 84.9314 370.787C90.6054 374.911 97.3118 379.749 104.071 384.433C110.839 389.124 117.613 393.627 123.425 397.092C126.332 398.825 128.953 400.271 131.183 401.344C132.613 402.032 133.793 402.523 134.729 402.844C150.623 392.071 174.326 368.186 195.599 342.003C206.517 328.565 216.7 314.638 224.765 301.745C232.872 288.784 238.678 277.117 241.061 268.151C252.346 225.706 249.139 207.526 241.671 197.181C240.57 195.656 240.709 193.563 242.001 192.197L392.227 33.4064C392.308 33.3206 392.393 33.2384 392.482 33.1603C395.611 30.4021 399.577 25.8564 401.551 21.2578C402.526 18.9859 402.903 16.9616 402.695 15.2603C402.501 13.6776 401.773 12.0874 399.932 10.5575C396.139 7.4052 391.693 7.24697 387.111 8.72767Z" fill="currentColor"/>
<path d="M281.342 378.72H280.842V379.22H281.342V378.72ZM418.91 378.72V379.22H419.41V378.72H418.91ZM418.91 305.953H419.41V305.453H418.91V305.953ZM281.342 305.953V305.453H280.842V305.953H281.342ZM436.831 288.012H437.331V287.512H436.831V288.012ZM404.927 4.53386L405.247 4.14934L405.247 4.14931L404.927 4.53386ZM384.709 1.27768L384.555 0.801905L384.555 0.801905L384.709 1.27768ZM410.457 14.308L410.953 14.2472L410.953 14.2472L410.457 14.308ZM408.736 24.3489L408.276 24.1516L408.276 24.1516L408.736 24.3489ZM397.786 38.9153L397.454 38.5417C397.443 38.5512 397.433 38.5612 397.423 38.5717L397.786 38.9153ZM249.81 195.328L249.447 194.984C249.293 195.147 249.266 195.393 249.381 195.585L249.81 195.328ZM248.619 270.164L248.136 270.036L248.136 270.036L248.619 270.164ZM231.394 305.899L230.97 305.634L230.97 305.634L231.394 305.899ZM201.666 346.942L202.054 347.258L202.054 347.258L201.666 346.942ZM137.532 410.374L137.26 409.954L137.26 409.954L137.532 410.374ZM134.667 410.929L134.572 411.419L134.572 411.419L134.667 410.929ZM127.795 408.4L127.578 408.85L127.578 408.85L127.795 408.4ZM119.424 403.818L119.68 403.389L119.68 403.389L119.424 403.818ZM99.6196 390.87L99.9044 390.459L99.9044 390.459L99.6196 390.87ZM80.3374 377.123L80.0435 377.527L80.0435 377.527L80.3374 377.123ZM76.4862 374.321L76.7805 373.916L76.7805 373.916L76.4862 374.321ZM67.5279 367.866L67.2432 368.277L67.2432 368.277L67.5279 367.866ZM65.8498 364.887L66.3488 364.856L66.3488 364.856L65.8498 364.887ZM67.1511 361.725L66.8182 361.352L66.8182 361.352L67.1511 361.725ZM72.8576 356.702L73.187 357.078L73.187 357.078L72.8576 356.702ZM106.071 326.085L105.718 325.732L105.718 325.732L106.071 326.085ZM135.791 291.011L136.21 291.284C136.338 291.088 136.312 290.828 136.148 290.661C135.983 290.493 135.724 290.463 135.526 290.588L135.791 291.011ZM97.3729 313.79L97.1337 313.351L97.1337 313.351L97.3729 313.79ZM37.2665 336.716L37.3105 337.214L37.3105 337.214L37.2665 336.716ZM34.2032 335.628L34.5512 335.269L34.5512 335.269L34.2032 335.628ZM9.17485 286.67L8.69402 286.807L8.69402 286.807L9.17485 286.67ZM0.967421 189.279L0.468773 189.242L0.468773 189.242L0.967421 189.279ZM2.89354 186.187L2.64099 185.756L2.64099 185.756L2.89354 186.187ZM6.52937 186.024L6.74212 185.571L6.74211 185.571L6.52937 186.024ZM53.454 197.801L53.4132 198.299L53.4132 198.299L53.454 197.801ZM115.248 186.142L115.006 185.705L115.006 185.705L115.248 186.142ZM116.597 189.615C116.73 189.856 117.035 189.944 117.276 189.81C117.518 189.677 117.605 189.372 117.472 189.131L116.597 189.615ZM173.141 158.139L173.005 157.658L173.005 157.658L173.141 158.139ZM213.908 161.68L213.702 162.135C213.889 162.22 214.108 162.181 214.256 162.039L213.908 161.68ZM370.259 10.0875L369.911 9.72847L369.911 9.72849L370.259 10.0875ZM372.62 13.2468C372.812 13.4453 373.129 13.4505 373.327 13.2585C373.526 13.0665 373.531 12.75 373.339 12.5515L372.62 13.2468ZM375.7 15.711L375.352 15.352L375.352 15.3521L375.7 15.711ZM387.111 8.72767L386.958 8.2519L386.958 8.2519L387.111 8.72767ZM217.412 169.18L217.76 169.539L217.76 169.539L217.412 169.18ZM212.988 169.891L213.206 169.442L213.206 169.442L212.988 169.891ZM175.258 165.675L175.393 166.157L175.393 166.157L175.258 165.675ZM119.035 192.991L118.793 192.554L118.793 192.554L119.035 192.991ZM52.8178 205.604L52.7771 206.102L52.7771 206.102L52.8178 205.604ZM8.40299 195.364L8.58934 194.9C8.44004 194.84 8.27101 194.855 8.13514 194.941C7.99928 195.028 7.9132 195.174 7.90383 195.335L8.40299 195.364ZM16.6948 284.521L16.214 284.658L16.214 284.658L16.6948 284.521ZM38.3894 328.724L38.0238 329.065C38.1333 329.182 38.2923 329.24 38.4514 329.22L38.3894 328.724ZM93.6344 306.914L93.3952 306.475L93.3952 306.475L93.6344 306.914ZM136.694 281.2L136.961 281.623L136.961 281.623L136.694 281.2ZM144.296 276.439L144.033 276.014L144.033 276.014L144.296 276.439ZM149.956 281.291L149.495 281.097L149.495 281.097L149.956 281.291ZM111.599 331.623L111.246 331.269L111.246 331.269L111.599 331.623ZM77.9117 362.678L77.5823 362.302L77.5823 362.302L77.9117 362.678ZM76.0369 364.32L75.7073 363.944C75.5928 364.045 75.5303 364.192 75.5375 364.344C75.5446 364.496 75.6206 364.636 75.744 364.726L76.0369 364.32ZM81.1606 368.044L80.8663 368.448L80.8663 368.448L81.1606 368.044ZM84.9314 370.787L85.2254 370.383L85.2254 370.383L84.9314 370.787ZM104.071 384.433L103.786 384.844L103.786 384.844L104.071 384.433ZM123.425 397.092L123.169 397.521L123.169 397.521L123.425 397.092ZM131.183 401.344L130.967 401.795L130.967 401.795L131.183 401.344ZM134.729 402.844L134.567 403.317C134.716 403.368 134.88 403.346 135.01 403.258L134.729 402.844ZM195.599 342.003L195.211 341.687L195.211 341.687L195.599 342.003ZM224.765 301.745L225.189 302.01L225.189 302.01L224.765 301.745ZM241.061 268.151L240.578 268.023L240.578 268.023L241.061 268.151ZM244.636 269.621C244.903 269.692 245.177 269.533 245.248 269.266C245.319 268.999 245.16 268.726 244.893 268.654L244.636 269.621ZM241.671 197.181L241.266 197.474L241.266 197.474L241.671 197.181ZM242.001 192.197L242.364 192.541L242.364 192.541L242.001 192.197ZM392.227 33.4064L391.864 33.0628L391.864 33.0628L392.227 33.4064ZM392.482 33.1603L392.151 32.7852L392.151 32.7852L392.482 33.1603ZM401.551 21.2578L402.01 21.455L402.01 21.455L401.551 21.2578ZM402.695 15.2603L403.191 15.1995L403.191 15.1995L402.695 15.2603ZM399.932 10.5575L400.252 10.173L400.252 10.173L399.932 10.5575ZM422.494 385.396H277.758V386.396H422.494V385.396ZM277.758 385.396C276.94 385.396 276.156 385.071 275.577 384.492L274.87 385.199C275.636 385.965 276.674 386.396 277.758 386.396V385.396ZM275.577 384.492C274.999 383.913 274.674 383.127 274.674 382.308H273.674C273.674 383.392 274.104 384.432 274.87 385.199L275.577 384.492ZM274.674 382.308V302.365H273.674V382.308H274.674ZM274.674 302.365C274.674 301.546 274.999 300.76 275.577 300.181L274.87 299.474C274.104 300.241 273.674 301.281 273.674 302.365H274.674ZM275.577 300.181C276.156 299.602 276.94 299.277 277.758 299.277V298.277C276.674 298.277 275.636 298.708 274.87 299.474L275.577 300.181ZM277.758 299.277H422.494V298.277H277.758V299.277ZM422.494 299.277C423.312 299.277 424.096 299.602 424.675 300.181L425.382 299.474C424.616 298.708 423.577 298.277 422.494 298.277V299.277ZM424.675 300.181C425.253 300.76 425.578 301.546 425.578 302.365H426.578C426.578 301.281 426.148 300.241 425.382 299.474L424.675 300.181ZM425.578 302.365V382.308H426.578V302.365H425.578ZM425.578 382.308C425.578 383.127 425.253 383.913 424.675 384.492L425.382 385.199C426.148 384.432 426.578 383.392 426.578 382.308H425.578ZM424.675 384.492C424.096 385.071 423.312 385.396 422.494 385.396V386.396C423.577 386.396 424.616 385.965 425.382 385.199L424.675 384.492ZM281.342 379.22H418.91V378.22H281.342V379.22ZM419.41 378.72V305.953H418.41V378.72H419.41ZM418.91 305.453H281.342V306.453H418.91V305.453ZM280.842 305.953V378.72H281.842V305.953H280.842ZM440.416 367.456C439.598 367.456 438.813 367.13 438.235 366.551L437.527 367.258C438.293 368.025 439.332 368.456 440.416 368.456V367.456ZM438.235 366.551C437.656 365.972 437.331 365.187 437.331 364.368H436.331C436.331 365.452 436.761 366.491 437.527 367.258L438.235 366.551ZM437.331 364.368V288.012H436.331V364.368H437.331ZM436.831 287.512H295.68V288.512H436.831V287.512ZM295.68 287.512C294.862 287.512 294.077 287.187 293.499 286.608L292.791 287.315C293.557 288.082 294.596 288.512 295.68 288.512V287.512ZM293.499 286.608C292.92 286.029 292.595 285.243 292.595 284.424H291.595C291.595 285.508 292.025 286.548 292.791 287.315L293.499 286.608ZM292.595 284.424C292.595 283.605 292.92 282.82 293.499 282.24L292.791 281.534C292.025 282.3 291.595 283.34 291.595 284.424H292.595ZM293.499 282.24C294.077 281.661 294.862 281.336 295.68 281.336V280.336C294.596 280.336 293.557 280.767 292.791 281.534L293.499 282.24ZM295.68 281.336H440.416V280.336H295.68V281.336ZM440.416 281.336C441.233 281.336 442.018 281.661 442.596 282.24L443.304 281.534C442.538 280.767 441.499 280.336 440.416 280.336V281.336ZM442.596 282.24C443.175 282.82 443.5 283.605 443.5 284.424H444.5C444.5 283.34 444.07 282.3 443.304 281.534L442.596 282.24ZM443.5 284.424V364.368H444.5V284.424H443.5ZM443.5 364.368C443.5 365.187 443.175 365.972 442.596 366.551L443.304 367.258C444.07 366.491 444.5 365.452 444.5 364.368H443.5ZM442.596 366.551C442.018 367.13 441.233 367.456 440.416 367.456V368.456C441.499 368.456 442.538 368.025 443.304 367.258L442.596 366.551ZM405.247 4.14931C398.557 -1.4094 390.842 -1.23007 384.555 0.801905L384.862 1.75345C390.947 -0.212851 398.268 -0.34998 404.608 4.91842L405.247 4.14931ZM410.953 14.2472C410.491 10.4713 408.653 6.98031 405.247 4.14934L404.608 4.91839C407.826 7.59314 409.531 10.856 409.961 14.3688L410.953 14.2472ZM409.195 24.5461C410.527 21.4445 411.399 17.8896 410.953 14.2472L409.961 14.3687C410.378 17.7781 409.565 21.1494 408.276 24.1516L409.195 24.5461ZM398.119 39.2889C401.754 36.0558 406.591 30.6114 409.195 24.5461L408.276 24.1516C405.751 30.0335 401.027 35.3634 397.454 38.5417L398.119 39.2889ZM250.173 195.672L398.149 39.2589L397.423 38.5717L249.447 194.984L250.173 195.672ZM249.102 270.293C259.726 230.329 258.498 208.854 250.239 195.071L249.381 195.585C257.415 208.992 258.751 230.108 248.136 270.036L249.102 270.293ZM231.817 306.164C240.058 292.989 246.395 280.478 249.102 270.293L248.136 270.036C245.467 280.075 239.194 292.484 230.97 305.634L231.817 306.164ZM202.054 347.258C213.132 333.623 223.529 319.415 231.817 306.164L230.97 305.634C222.708 318.842 212.337 333.016 201.278 346.627L202.054 347.258ZM137.803 410.794C154.822 399.793 180 374.401 202.054 347.258L201.278 346.627C179.239 373.752 154.142 399.042 137.26 409.954L137.803 410.794ZM134.572 411.419C135.689 411.636 136.847 411.412 137.803 410.794L137.26 409.954C136.521 410.432 135.626 410.605 134.762 410.438L134.572 411.419ZM127.578 408.85C130.044 410.037 132.47 411.012 134.572 411.419L134.762 410.438C132.789 410.055 130.456 409.126 128.012 407.949L127.578 408.85ZM119.168 404.248C122.193 406.051 125.045 407.631 127.578 408.85L128.012 407.949C125.515 406.748 122.691 405.184 119.68 403.389L119.168 404.248ZM99.3348 391.281C106.162 396.012 113.115 400.639 119.168 404.248L119.68 403.389C113.656 399.797 106.725 395.185 99.9044 390.459L99.3348 391.281ZM80.0435 377.527C85.7301 381.66 92.497 386.542 99.3348 391.281L99.9044 390.459C93.0761 385.726 86.3165 380.85 80.6313 376.718L80.0435 377.527ZM76.1919 374.725C77.403 375.607 78.6907 376.544 80.0435 377.527L80.6313 376.718C79.279 375.736 77.9917 374.798 76.7805 373.916L76.1919 374.725ZM67.2432 368.277C69.1677 369.61 72.2764 371.874 76.1919 374.725L76.7805 373.916C72.8704 371.069 69.7494 368.797 67.8126 367.455L67.2432 368.277ZM65.3507 364.918C65.4336 366.269 66.131 367.507 67.2432 368.277L67.8126 367.455C66.9526 366.86 66.413 365.902 66.3488 364.856L65.3507 364.918ZM66.8182 361.352C65.8086 362.252 65.2678 363.567 65.3507 364.918L66.3488 364.856C66.2847 363.811 66.7032 362.795 67.4839 362.098L66.8182 361.352ZM72.5283 356.326C70.3406 358.241 68.4131 359.929 66.8182 361.352L67.4839 362.098C69.0746 360.679 70.9982 358.995 73.187 357.078L72.5283 356.326ZM105.718 325.732C93.432 338.023 81.012 348.898 72.5283 356.326L73.187 357.078C81.6697 349.651 94.1129 338.756 106.425 326.439L105.718 325.732ZM135.372 290.738C127.862 302.257 116.995 314.449 105.718 325.732L106.425 326.439C117.721 315.137 128.644 302.888 136.21 291.284L135.372 290.738ZM97.6122 314.229C111.797 306.5 125.388 298.122 136.057 291.435L135.526 290.588C124.861 297.273 111.291 305.637 97.1337 313.351L97.6122 314.229ZM37.3105 337.214C54.5273 335.696 77.0981 325.406 97.6122 314.229L97.1337 313.351C76.6123 324.532 54.2081 334.72 37.2226 336.218L37.3105 337.214ZM33.8552 335.987C34.7745 336.879 36.0354 337.326 37.3105 337.214L37.2226 336.218C36.237 336.305 35.2622 335.959 34.5512 335.269L33.8552 335.987ZM8.69402 286.807C15.6458 311.183 25.428 327.817 33.8552 335.987L34.5512 335.269C26.2959 327.266 16.5806 310.815 9.65568 286.533L8.69402 286.807ZM0.468773 189.242C-2.51117 229.691 1.70768 262.309 8.69402 286.807L9.65568 286.533C2.70403 262.157 -1.50594 229.657 1.46607 189.315L0.468773 189.242ZM2.64099 185.756C1.38772 186.489 0.575514 187.793 0.468773 189.242L1.46607 189.315C1.54866 188.194 2.17706 187.186 3.14609 186.619L2.64099 185.756ZM6.74211 185.571C5.42801 184.953 3.8943 185.022 2.64099 185.756L3.14608 186.619C4.11508 186.052 5.30071 185.998 6.31662 186.476L6.74211 185.571ZM53.4947 197.303C33.6562 195.682 16.4068 190.115 6.74212 185.571L6.31662 186.476C16.0853 191.069 33.4509 196.668 53.4132 198.299L53.4947 197.303ZM115.006 185.705C95.3843 196.575 73.322 198.922 53.4947 197.303L53.4132 198.299C73.367 199.929 95.6437 197.575 115.49 186.579L115.006 185.705ZM117.472 189.131L115.686 185.9L114.811 186.384L116.597 189.615L117.472 189.131ZM173.005 157.658C158.127 161.846 140.573 171.54 115.006 185.705L115.49 186.579C141.103 172.39 158.537 162.769 173.276 158.62L173.005 157.658ZM214.114 161.224C199.674 154.7 187.6 153.55 173.005 157.658L173.276 158.62C187.627 154.581 199.459 155.7 213.702 162.135L214.114 161.224ZM369.911 9.72849L213.56 161.321L214.256 162.039L370.607 10.4464L369.911 9.72849ZM373.339 12.5515L370.619 9.73979L369.9 10.4351L372.62 13.2468L373.339 12.5515ZM384.555 0.801905C378.37 2.80078 373.021 6.71387 369.911 9.72847L370.607 10.4465C373.638 7.50838 378.859 3.69356 384.862 1.75345L384.555 0.801905ZM376.048 16.07C378.46 13.7312 382.683 10.6844 387.265 9.20344L386.958 8.2519C382.193 9.79161 377.843 12.9366 375.352 15.352L376.048 16.07ZM217.76 169.539L376.048 16.07L375.352 15.3521L217.064 168.821L217.76 169.539ZM212.77 170.341C214.437 171.149 216.43 170.829 217.76 169.539L217.064 168.821C216.036 169.818 214.495 170.066 213.206 169.442L212.77 170.341ZM175.393 166.157C181.957 164.309 187.829 163.679 193.784 164.343C199.743 165.007 205.813 166.969 212.77 170.341L213.206 169.442C206.181 166.036 200 164.029 193.895 163.349C187.788 162.668 181.785 163.319 175.122 165.194L175.393 166.157ZM119.277 193.429C145.247 179.042 161.742 169.999 175.393 166.157L175.122 165.194C161.332 169.076 144.716 178.192 118.793 192.554L119.277 193.429ZM52.7771 206.102C73.7183 207.813 97.6701 205.4 119.277 193.429L118.793 192.554C97.4108 204.4 73.6733 206.806 52.8586 205.105L52.7771 206.102ZM8.21663 195.828C19.0733 200.188 34.9615 204.646 52.7771 206.102L52.8586 205.105C35.1526 203.659 19.3623 199.227 8.58934 194.9L8.21663 195.828ZM17.1756 284.384C10.8089 262.059 6.74915 232.331 8.90214 195.393L7.90383 195.335C5.74481 232.376 9.81416 262.217 16.214 284.658L17.1756 284.384ZM38.755 328.383C32.0093 321.153 23.4949 306.542 17.1756 284.384L16.214 284.658C22.5604 306.912 31.1358 321.683 38.0238 329.065L38.755 328.383ZM93.3952 306.475C73.6174 317.25 53.3531 326.349 38.3274 328.228L38.4514 329.22C53.684 327.316 74.0963 318.128 93.8736 307.353L93.3952 306.475ZM136.428 280.777C125.181 287.852 109.709 297.586 93.3952 306.475L93.8736 307.353C110.218 298.447 125.716 288.698 136.961 281.623L136.428 280.777ZM144.033 276.014C141.799 277.398 139.245 279.004 136.428 280.777L136.961 281.623C139.779 279.85 142.329 278.246 144.559 276.864L144.033 276.014ZM149.222 276.415C147.764 275.165 145.665 275.003 144.033 276.014L144.559 276.864C145.822 276.082 147.444 276.208 148.571 277.174L149.222 276.415ZM150.416 281.485C151.163 279.715 150.68 277.665 149.222 276.415L148.571 277.174C149.699 278.141 150.073 279.727 149.495 281.097L150.416 281.485ZM111.953 331.976C127.546 316.377 143.426 298.053 150.416 281.485L149.495 281.097C142.587 297.469 126.834 315.673 111.246 331.269L111.953 331.976ZM78.241 363.055C86.7127 355.638 99.4311 344.504 111.953 331.976L111.246 331.269C98.7502 343.77 86.0551 354.885 77.5823 362.302L78.241 363.055ZM76.3665 364.696C76.965 364.172 77.5904 363.624 78.241 363.055L77.5823 362.302C76.9318 362.872 76.3061 363.42 75.7073 363.944L76.3665 364.696ZM81.455 367.639C79.5652 366.263 77.8379 365.006 76.3298 363.915L75.744 364.726C77.2504 365.815 78.9762 367.071 80.8663 368.448L81.455 367.639ZM85.2254 370.383C83.9126 369.429 82.6512 368.51 81.455 367.639L80.8663 368.448C82.0625 369.319 83.3243 370.238 84.6375 371.192L85.2254 370.383ZM104.356 384.022C97.6013 379.341 90.8986 374.505 85.2254 370.383L84.6375 371.192C90.3123 375.316 97.0223 380.156 103.786 384.844L104.356 384.022ZM123.681 396.662C117.883 393.206 111.121 388.71 104.356 384.022L103.786 384.844C110.558 389.537 117.342 394.048 123.169 397.521L123.681 396.662ZM131.4 400.894C129.189 399.829 126.581 398.391 123.681 396.662L123.169 397.521C126.083 399.259 128.718 400.713 130.967 401.795L131.4 400.894ZM134.891 402.371C133.979 402.058 132.818 401.576 131.4 400.894L130.967 401.795C132.408 402.488 133.607 402.988 134.567 403.317L134.891 402.371ZM195.211 341.687C173.947 367.859 150.281 391.699 134.449 402.43L135.01 403.258C150.965 392.443 174.705 368.512 195.987 342.318L195.211 341.687ZM224.341 301.479C216.29 314.352 206.119 328.262 195.211 341.687L195.987 342.318C206.914 328.869 217.111 314.925 225.189 302.01L224.341 301.479ZM240.578 268.023C238.214 276.915 232.44 288.532 224.341 301.479L225.189 302.01C233.304 289.036 239.142 277.319 241.545 268.28L240.578 268.023ZM244.893 268.654L241.19 267.668L240.933 268.634L244.636 269.621L244.893 268.654ZM241.266 197.474C248.591 207.621 251.857 225.596 240.578 268.023L241.545 268.28C252.834 225.817 249.688 207.432 242.076 196.889L241.266 197.474ZM241.638 191.853C240.18 193.394 240.024 195.754 241.266 197.474L242.076 196.889C241.116 195.558 241.237 193.732 242.364 192.541L241.638 191.853ZM391.864 33.0628L241.638 191.853L242.364 192.541L392.59 33.7501L391.864 33.0628ZM392.151 32.7852C392.051 32.8733 391.955 32.966 391.864 33.0628L392.59 33.7501C392.661 33.6752 392.735 33.6035 392.813 33.5354L392.151 32.7852ZM401.091 21.0605C399.157 25.5665 395.249 30.0546 392.151 32.7852L392.813 33.5354C395.973 30.7495 399.996 26.1462 402.01 21.455L401.091 21.0605ZM402.199 15.321C402.393 16.906 402.045 18.8385 401.091 21.0605L402.01 21.455C403.007 19.1332 403.414 17.0171 403.191 15.1995L402.199 15.321ZM399.613 10.942C401.359 12.3937 402.021 13.8697 402.199 15.3211L403.191 15.1995C402.981 13.4855 402.187 11.7812 400.252 10.173L399.613 10.942ZM387.265 9.20344C391.742 7.75649 395.992 7.93349 399.613 10.9421L400.252 10.173C396.285 6.87691 391.644 6.73745 386.958 8.2519L387.265 9.20344Z" fill="currentColor"/>
</svg>
